<svg id="Gruppe_364" data-name="Gruppe 364" xmlns="http://www.w3.org/2000/svg" xmlns:xlink="http://www.w3.org/1999/xlink" width="187.616" height="161.19" viewBox="0 0 187.616 161.19">
  <defs>
    <clipPath id="clip-path">
      <rect id="Rechteck_144" data-name="Rechteck 144" width="187.616" height="161.19" fill="none"/>
    </clipPath>
  </defs>
  <g id="Gruppe_156" data-name="Gruppe 156">
    <g id="Gruppe_155" data-name="Gruppe 155" clip-path="url(#clip-path)">
      <path id="Pfad_171" data-name="Pfad 171" d="M73,8.854a13.033,13.033,0,0,0-17.8-4.77L7.453,31.648A13.034,13.034,0,0,0,20.486,54.224L68.232,26.658A13.033,13.033,0,0,0,73,8.854" transform="translate(0.387 0.967)" fill="#b2a499"/>
      <path id="Pfad_172" data-name="Pfad 172" d="M59.233,40.985a13.033,13.033,0,0,0-17.8-4.771L7.453,55.83A13.034,13.034,0,0,0,20.486,78.405L54.462,58.789a13.033,13.033,0,0,0,4.771-17.8" transform="translate(0.387 14.271)" fill="#f3b338"/>
      <path id="Pfad_173" data-name="Pfad 173" d="M24.395,74.285a13.458,13.458,0,1,0-1,19.008,13.459,13.459,0,0,0,1-19.008" transform="translate(0.387 28.914)" fill="#7ab0e0"/>
      <path id="Pfad_174" data-name="Pfad 174" d="M24.395,96.71a13.458,13.458,0,1,0-1,19.008,13.459,13.459,0,0,0,1-19.008" transform="translate(0.387 38.2)" fill="#4a4a49"/>
    </g>
  </g>
  <g id="Gruppe_158" data-name="Gruppe 158">
    <g id="Gruppe_157" data-name="Gruppe 157" clip-path="url(#clip-path)">
      <path id="Pfad_175" data-name="Pfad 175" d="M74.52,106.226a8.273,8.273,0,0,1-.484,2.889,6.02,6.02,0,0,1-1.421,2.227,6.423,6.423,0,0,1-2.26,1.42,8.334,8.334,0,0,1-2.968.5H63.643V99.254h3.744a8.845,8.845,0,0,1,2.968.468,6.146,6.146,0,0,1,2.26,1.372,5.881,5.881,0,0,1,1.421,2.195,8.334,8.334,0,0,1,.484,2.937m5.358.355v-.71a12.207,12.207,0,0,0-.79-4.374,10.415,10.415,0,0,0-2.405-3.7,11.543,11.543,0,0,0-4-2.55,15.262,15.262,0,0,0-5.584-.936H58.349V118.2H67.1a14.392,14.392,0,0,0,5.584-1,11.906,11.906,0,0,0,4-2.664,10.879,10.879,0,0,0,2.405-3.743,11.779,11.779,0,0,0,.79-4.212" transform="translate(24.16 39.052)" fill="#4a4a49"/>
      <path id="Pfad_176" data-name="Pfad 176" d="M95.158,106.409a8.582,8.582,0,0,1-.484,2.9,6.932,6.932,0,0,1-1.437,2.388,6.7,6.7,0,0,1-2.292,1.613,7.507,7.507,0,0,1-3.018.581,7.4,7.4,0,0,1-3-.581,6.742,6.742,0,0,1-2.275-1.613,6.932,6.932,0,0,1-1.437-2.388,8.582,8.582,0,0,1-.484-2.9,9.023,9.023,0,0,1,.484-3.018A6.747,6.747,0,0,1,82.651,101a6.485,6.485,0,0,1,2.275-1.565,8.488,8.488,0,0,1,6,0A6.485,6.485,0,0,1,93.206,101a6.929,6.929,0,0,1,1.452,2.39,8.745,8.745,0,0,1,.5,3.018m5.358.322v-.71a12.233,12.233,0,0,0-.807-4.341,12.05,12.05,0,0,0-2.388-3.89A11.628,11.628,0,0,0,93.384,95a14.7,14.7,0,0,0-10.909,0,11.62,11.62,0,0,0-3.938,2.791,11.836,11.836,0,0,0-2.373,3.89,12.465,12.465,0,0,0-.79,4.341v.71a12.223,12.223,0,0,0,.758,4.1,12.645,12.645,0,0,0,2.308,3.954,11.431,11.431,0,0,0,3.923,2.937,14.464,14.464,0,0,0,11.134,0,11.431,11.431,0,0,0,3.923-2.937,12.888,12.888,0,0,0,2.323-3.954,11.984,11.984,0,0,0,.775-4.1" transform="translate(31.209 38.901)" fill="#4a4a49"/>
      <path id="Pfad_177" data-name="Pfad 177" d="M109.423,102.578a4.063,4.063,0,0,1-.468,1.985,3.265,3.265,0,0,1-1.324,1.322,4.133,4.133,0,0,1-2.016.468h-4.391V98.8h4.391a4.149,4.149,0,0,1,2.016.468,3.277,3.277,0,0,1,1.324,1.324,4.063,4.063,0,0,1,.468,1.985m4.18,4.5a7.538,7.538,0,0,0,1.178-4.341v-.516a7.753,7.753,0,0,0-1.162-4.391,7.114,7.114,0,0,0-3.324-2.63,13.391,13.391,0,0,0-5.1-.888H95.931V118.07h5.293v-7.552h3.859l5.147,7.552h6.133l-6.021-8.439a7.048,7.048,0,0,0,3.261-2.551" transform="translate(39.721 39.051)" fill="#4a4a49"/>
      <path id="Pfad_178" data-name="Pfad 178" d="M126.576,98.841V94.452H112.439v23.561h5.293v-9.488h8.456v-4.391h-8.456V98.841Z" transform="translate(46.556 39.109)" fill="#4a4a49"/>
      <path id="Pfad_179" data-name="Pfad 179" d="M71.841,79.547a4.063,4.063,0,0,1-.468,1.985,3.265,3.265,0,0,1-1.324,1.322,4.133,4.133,0,0,1-2.016.468H63.642V75.77h4.391a4.149,4.149,0,0,1,2.016.468,3.277,3.277,0,0,1,1.324,1.324,4.063,4.063,0,0,1,.468,1.985m4.18,4.5A7.535,7.535,0,0,0,77.2,79.709v-.516A7.745,7.745,0,0,0,76.036,74.8a7.108,7.108,0,0,0-3.324-2.632,13.392,13.392,0,0,0-5.1-.887H58.349V95.04h5.293V87.487H67.5l5.147,7.552h6.133L72.76,86.6A7.048,7.048,0,0,0,76.02,84.05" transform="translate(24.16 29.516)" fill="#4a4a49"/>
      <rect id="Rechteck_145" data-name="Rechteck 145" width="5.293" height="23.562" transform="translate(105.955 100.995)" fill="#4a4a49"/>
      <path id="Pfad_180" data-name="Pfad 180" d="M99.494,94.53a10.248,10.248,0,0,0,3.906-3.421,10.5,10.5,0,0,0,1.727-4.727H99.834a4.862,4.862,0,0,1-2.05,3.291,7.019,7.019,0,0,1-4.147,1.193,7.31,7.31,0,0,1-2.872-.532,5.535,5.535,0,0,1-2.114-1.55A6.88,6.88,0,0,1,87.359,86.4a9.9,9.9,0,0,1-.437-3.018,10.021,10.021,0,0,1,.437-3.05,7.031,7.031,0,0,1,1.259-2.371,5.547,5.547,0,0,1,2.049-1.551,6.849,6.849,0,0,1,2.808-.549,7.2,7.2,0,0,1,2.856.549,5.323,5.323,0,0,1,2.081,1.551,5.037,5.037,0,0,1,1.034,2.419h5.325a10.127,10.127,0,0,0-1.727-4.953,10,10,0,0,0-3.923-3.309,12.744,12.744,0,0,0-5.648-1.195,12.446,12.446,0,0,0-5.31,1.049,10.717,10.717,0,0,0-3.712,2.791,11.683,11.683,0,0,0-2.178,3.89,13.733,13.733,0,0,0-.711,4.341v.71a13.149,13.149,0,0,0,.694,4.115A12.581,12.581,0,0,0,84.4,91.754a10.638,10.638,0,0,0,3.744,2.937A12.446,12.446,0,0,0,93.636,95.8a12.617,12.617,0,0,0,5.858-1.275" transform="translate(33.772 29.365)" fill="#4a4a49"/>
      <path id="Pfad_181" data-name="Pfad 181" d="M121.282,94.984V71.421h-5.293v9.394h-9.942V71.421h-5.293V94.984h5.293V85.462h9.942v9.522Z" transform="translate(41.718 29.573)" fill="#4a4a49"/>
      <path id="Pfad_182" data-name="Pfad 182" d="M132.943,94.868a7.638,7.638,0,0,0,3.34-2.63,6.748,6.748,0,0,0,1.179-3.954,6.175,6.175,0,0,0-1.114-3.729,7.554,7.554,0,0,0-3.083-2.421,14.021,14.021,0,0,0-4.55-1.113l-1.807-.161a3.51,3.51,0,0,1-2.325-.872,2.433,2.433,0,0,1-.71-1.742,2.791,2.791,0,0,1,.387-1.437,2.689,2.689,0,0,1,1.178-1.049,4.429,4.429,0,0,1,1.953-.387,4.215,4.215,0,0,1,2.049.452A3.069,3.069,0,0,1,131.1,78.6h5.164A7.565,7.565,0,0,0,135.2,74.55a7.082,7.082,0,0,0-3.05-2.678,12.338,12.338,0,0,0-9.344-.065,6.739,6.739,0,0,0-4.1,6.44,6.471,6.471,0,0,0,2.1,5.035,9.218,9.218,0,0,0,5.615,2.195l1.776.161a6.8,6.8,0,0,1,3.131.855,2.066,2.066,0,0,1,.969,1.792,2.6,2.6,0,0,1-.518,1.6,3.318,3.318,0,0,1-1.516,1.08,6.92,6.92,0,0,1-2.486.387,6.534,6.534,0,0,1-2.68-.468,3.453,3.453,0,0,1-1.533-1.243,3.03,3.03,0,0,1-.5-1.678h-5.132a7.326,7.326,0,0,0,1.13,4.051,7.625,7.625,0,0,0,3.324,2.776,12.79,12.79,0,0,0,5.39,1.017,12.958,12.958,0,0,0,5.164-.936" transform="translate(48.831 29.365)" fill="#4a4a49"/>
      <path id="Pfad_183" data-name="Pfad 183" d="M72.486,52.781V48.392H58.35V71.953h5.293V62.465H72.1V58.074H63.643V52.781Z" transform="translate(24.16 20.037)" fill="#4a4a49"/>
      <path id="Pfad_184" data-name="Pfad 184" d="M84.359,56.517A4.063,4.063,0,0,1,83.89,58.5a3.277,3.277,0,0,1-1.324,1.324,4.148,4.148,0,0,1-2.016.467H76.16V52.74H80.55a4.149,4.149,0,0,1,2.016.468,3.277,3.277,0,0,1,1.324,1.324,4.063,4.063,0,0,1,.468,1.985m4.18,4.5a7.536,7.536,0,0,0,1.178-4.341v-.516a7.745,7.745,0,0,0-1.162-4.389,7.108,7.108,0,0,0-3.324-2.632,13.392,13.392,0,0,0-5.1-.887H70.867V72.01H76.16V64.457h3.859l5.147,7.552H91.3l-6.021-8.439a7.048,7.048,0,0,0,3.261-2.551" transform="translate(29.343 19.98)" fill="#4a4a49"/>
      <rect id="Rechteck_146" data-name="Rechteck 146" width="5.293" height="23.562" transform="translate(123.656 68.429)" fill="#4a4a49"/>
      <path id="Pfad_185" data-name="Pfad 185" d="M100.032,67.564v-5.39h8.909V57.784h-8.909v-5h9.425V48.392H94.868V71.953h14.815V67.564Z" transform="translate(39.281 20.037)" fill="#4a4a49"/>
      <path id="Pfad_186" data-name="Pfad 186" d="M124.574,60.164a8.275,8.275,0,0,1-.484,2.89,6.026,6.026,0,0,1-1.421,2.226,6.4,6.4,0,0,1-2.26,1.42,8.334,8.334,0,0,1-2.968.5H113.7V53.193h3.744a8.845,8.845,0,0,1,2.968.468,6.149,6.149,0,0,1,2.26,1.373,5.876,5.876,0,0,1,1.421,2.193,8.34,8.34,0,0,1,.484,2.937m5.358.355v-.71a12.243,12.243,0,0,0-.79-4.374,10.415,10.415,0,0,0-2.405-3.7,11.54,11.54,0,0,0-4-2.548,15.262,15.262,0,0,0-5.584-.936H108.4V72.14h8.747a14.365,14.365,0,0,0,5.584-1,11.941,11.941,0,0,0,4-2.661,10.9,10.9,0,0,0,2.405-3.746,11.81,11.81,0,0,0,.79-4.212" transform="translate(44.885 19.98)" fill="#4a4a49"/>
      <path id="Pfad_187" data-name="Pfad 187" d="M71.376,42.406a4.314,4.314,0,0,0-.684-2.431,4.965,4.965,0,0,0-1.966-1.684,8.318,8.318,0,0,0-3.09-.795l-2.052-.2a3.823,3.823,0,0,1-2.466-.953,2.712,2.712,0,0,1-.855-2.026,3.524,3.524,0,0,1,.452-1.759,3.252,3.252,0,0,1,1.391-1.294,6.045,6.045,0,0,1,4.849.037,3.3,3.3,0,0,1,1.391,1.379,3.963,3.963,0,0,1,.44,1.833h1.857a5.408,5.408,0,0,0-.732-2.834A5.065,5.065,0,0,0,67.8,29.766a7.282,7.282,0,0,0-3.31-.7,7.178,7.178,0,0,0-3.261.684,5.113,5.113,0,0,0-2.089,1.855,5.016,5.016,0,0,0-.732,2.712,4.2,4.2,0,0,0,1.356,3.261,6.016,6.016,0,0,0,3.651,1.428l2.052.2a5.3,5.3,0,0,1,3.04,1.038,2.732,2.732,0,0,1,1.014,2.162,3.292,3.292,0,0,1-.549,1.857,3.712,3.712,0,0,1-1.662,1.318,6.954,6.954,0,0,1-2.8.489,6.684,6.684,0,0,1-2.943-.55,3.6,3.6,0,0,1-1.612-1.441,3.851,3.851,0,0,1-.5-1.917H57.6a5.377,5.377,0,0,0,.795,2.895,5.282,5.282,0,0,0,2.332,2,10.159,10.159,0,0,0,7.425.037,5.537,5.537,0,0,0,2.381-1.9,4.788,4.788,0,0,0,.843-2.784" transform="translate(23.85 12.037)" fill="#4a4a49"/>
      <path id="Pfad_188" data-name="Pfad 188" d="M72.881,43.15V35.456h4.665V34.065H72.881v-4.08H71.121v4.08H68.8v1.391h2.32v7.425a5.1,5.1,0,0,0,.537,2.528,2.98,2.98,0,0,0,1.514,1.331,6.247,6.247,0,0,0,2.32.39h2.052V45.47h-2.32a2.373,2.373,0,0,1-1.734-.6,2.3,2.3,0,0,1-.611-1.722" transform="translate(28.488 12.415)" fill="#4a4a49"/>
      <path id="Pfad_189" data-name="Pfad 189" d="M85.372,39.361v1.71a3.99,3.99,0,0,1-.608,2.186A3.091,3.091,0,0,1,83.37,44.38a4.634,4.634,0,0,1-1.732.329,3.481,3.481,0,0,1-2.32-.72,2.41,2.41,0,0,1-.857-1.941,2.5,2.5,0,0,1,.82-1.942,3.377,3.377,0,0,1,2.357-.745Zm1.761,6.472v-8.3a5.791,5.791,0,0,0-.561-2.748A3.363,3.363,0,0,0,84.8,33.255a8.631,8.631,0,0,0-3.189-.489c-.375,0-.759,0-1.16.013s-.786.028-1.161.061l-1.1.1v1.612c.344-.033.738-.061,1.186-.085s.918-.045,1.417-.062.987-.024,1.476-.024a3.165,3.165,0,0,1,2.344.769,3.021,3.021,0,0,1,.757,2.21v.611H81.759a7.089,7.089,0,0,0-2.749.477,3.749,3.749,0,0,0-1.734,1.38,3.881,3.881,0,0,0-.6,2.2,4.2,4.2,0,0,0,.574,2.248,3.7,3.7,0,0,0,1.625,1.415,5.667,5.667,0,0,0,2.418.489,5.279,5.279,0,0,0,2.346-.489,3.746,3.746,0,0,0,1.588-1.452,4.585,4.585,0,0,0,.44-1.027v2.626Z" transform="translate(31.749 13.567)" fill="#4a4a49"/>
      <path id="Pfad_190" data-name="Pfad 190" d="M101.715,43.15V35.456h4.665V34.065h-4.665v-4.08H99.955v4.08h-2.32v1.391h2.32v7.425a5.1,5.1,0,0,0,.537,2.528,2.986,2.986,0,0,0,1.514,1.331,6.247,6.247,0,0,0,2.32.39h2.052V45.47h-2.32a2.373,2.373,0,0,1-1.734-.6,2.3,2.3,0,0,1-.611-1.722" transform="translate(40.426 12.415)" fill="#4a4a49"/>
      <path id="Pfad_191" data-name="Pfad 191" d="M97.765,41.269a5.032,5.032,0,0,1-.609,2.5,4.234,4.234,0,0,1-1.674,1.673,4.836,4.836,0,0,1-2.381.587,4.6,4.6,0,0,1-2.492-.672,4.465,4.465,0,0,1-1.66-1.869,6.62,6.62,0,0,1-.013-5.421,4.585,4.585,0,0,1,1.637-1.893,4.459,4.459,0,0,1,2.5-.7,4.887,4.887,0,0,1,2.405.587,4.336,4.336,0,0,1,1.674,1.623,4.673,4.673,0,0,1,.609,2.407Zm1.759,5.959V29.4H97.693v7.2l-.007,0a5.31,5.31,0,0,0-2-2.031,5.728,5.728,0,0,0-2.882-.708,5.925,5.925,0,0,0-4.58,2.039,6.758,6.758,0,0,0-1.257,2.149,7.35,7.35,0,0,0-.44,2.528v.342a7.267,7.267,0,0,0,.452,2.576,6.682,6.682,0,0,0,1.294,2.149,5.927,5.927,0,0,0,2,1.465,6.173,6.173,0,0,0,2.578.526,6.006,6.006,0,0,0,2.869-.684A5.2,5.2,0,0,0,97.8,44.9a5.465,5.465,0,0,0,.25-.634l.007.008v2.957Z" transform="translate(35.828 12.172)" fill="#4a4a49"/>
    </g>
  </g>
</svg>
